<?xml version="1.0"?>
<svg xmlns="http://www.w3.org/2000/svg" height="512px" viewBox="0 -80 480 480" width="512px"><path d="m472 128h-8v-56c-.027344-22.082031-17.917969-39.972656-40-40h-40c-.019531-17.664062-14.335938-31.9804688-32-32h-296c-30.914062.0351562-55.9648438 25.085938-56 56v176c.0273438 22.082031 17.917969 39.972656 40 40h48c4.417969 0 8-3.582031 8-8v-48c0-4.417969-3.582031-8-8-8h-24v-32h64v136c0 4.417969 3.582031 8 8 8h48c4.417969 0 8-3.582031 8-8v-72h16v72c0 4.417969 3.582031 8 8 8h48c4.417969 0 8-3.582031 8-8v-72h48v72c0 4.417969 3.582031 8 8 8h48c4.417969 0 8-3.582031 8-8v-232h32v48h-8c-4.417969 0-8 3.582031-8 8v48c0 3.234375 1.949219 6.152344 4.9375 7.390625s6.429688.554687 8.71875-1.734375l8.152344-8.152344 11.035156 22.074219c1.355469 2.710937 4.125 4.421875 7.15625 4.421875s5.800781-1.710938 7.15625-4.421875l11.035156-22.074219 8.152344 8.152344c2.285156 2.289062 5.726562 2.972656 8.71875 1.734375 2.988281-1.238281 4.9375-4.15625 4.9375-7.390625v-48c0-4.417969-3.582031-8-8-8zm-104 176h-32v-88c0-4.417969-3.582031-8-8-8s-8 3.582031-8 8v8h-48v-8c0-4.417969-3.582031-8-8-8s-8 3.582031-8 8v88h-32v-72c0-4.417969-3.582031-8-8-8h-32c-4.417969 0-8 3.582031-8 8v72h-32v-136c0-4.417969-3.582031-8-8-8h-80c-4.417969 0-8 3.582031-8 8v48c0 4.417969 3.582031 8 8 8h24v32h-40c-13.25-.015625-23.984375-10.75-24-24v-8h16v-16h-16v-16h16v-16h-16v-120c.027344-22.082031 17.917969-39.972656 40-40h296c8.832031.007812 15.992188 7.167969 16 16zm48-240h-32v-16h40c13.25.015625 23.984375 10.75 24 24v56h-16v-48c-.007812-8.832031-7.167969-15.992188-16-16zm48 100.6875-2.34375-2.34375c-1.816406-1.820312-4.398438-2.652344-6.9375-2.242188-2.539062.410157-4.726562 2.019532-5.875 4.320313l-8.84375 17.691406-8.84375-17.691406c-1.152344-2.300781-3.335938-3.90625-5.875-4.320313-.421875-.066406-.851562-.101562-1.28125-.101562-2.121094 0-4.15625.84375-5.65625 2.34375l-2.34375 2.34375v-20.6875h48zm0 0" fill="#ffa300"/><path d="m48 96h16v16h-16zm0 0" fill="#ffa300"/><path d="m176 32h-72c-4.417969 0-8 3.582031-8 8s3.582031 8 8 8h64v78.027344l-62.265625-13.835938c-4.308594-.945312-8.570313 1.773438-9.523437 6.078125-.957032 4.304688 1.75 8.574219 6.054687 9.539063l72 16c2.367187.527344 4.847656-.046875 6.738281-1.566406 1.894532-1.519532 2.996094-3.816407 2.996094-6.242188v-96c0-4.417969-3.582031-8-8-8zm0 0" fill="#ffa300"/></svg>
